<svg width="39" height="39" viewBox="0 0 39 39" fill="none" xmlns="http://www.w3.org/2000/svg">
<g filter="url(#filter0_d)">
<path d="M34.412 9.53846L32.4847 7.61118C32.2234 7.34985 31.7661 7.28451 31.4394 7.48051C30.2961 8.19916 28.8588 8.03582 27.9115 7.08851C26.9642 6.1412 26.8008 4.67123 27.5195 3.56059C27.7155 3.23393 27.6828 2.80927 27.3888 2.51528L25.4615 0.587995C24.6776 -0.195988 23.3709 -0.195988 22.5869 0.587995L17.687 5.48789L19.7123 7.51316L18.5363 8.68915L16.5111 6.66386L4.588 18.5869C3.80401 19.3709 3.80401 20.6776 4.588 21.4615L6.51528 23.3888C6.7766 23.6501 7.20127 23.7155 7.52793 23.5195C8.63858 22.8335 10.0759 23.0295 11.0232 23.9442C11.9378 24.8588 12.1338 26.2961 11.4478 27.4394C11.2519 27.7661 11.2845 28.1907 11.5785 28.452L13.5385 30.412C13.9304 30.804 14.4531 31 14.9758 31C15.4984 31 16.0211 30.804 16.4131 30.412L28.3361 18.4889L26.3109 16.4636L27.4868 15.2877L29.5121 17.313L34.412 12.4131C35.196 11.6291 35.196 10.3224 34.412 9.53846ZM19.647 9.83246L20.823 8.65647L23.0116 10.8451L21.8356 12.0211L19.647 9.83246ZM25.1349 15.3203L22.9463 13.1317L24.1222 11.9557L26.3109 14.1444L25.1349 15.3203Z" fill="white"/>
</g>
<defs>
<filter id="filter0_d" x="0" y="0" width="39" height="39" filterUnits="userSpaceOnUse" color-interpolation-filters="sRGB">
<feFlood flood-opacity="0" result="BackgroundImageFix"/>
<feColorMatrix in="SourceAlpha" type="matrix" values="0 0 0 0 0 0 0 0 0 0 0 0 0 0 0 0 0 0 127 0"/>
<feOffset dy="4"/>
<feGaussianBlur stdDeviation="2"/>
<feColorMatrix type="matrix" values="0 0 0 0 0 0 0 0 0 0 0 0 0 0 0 0 0 0 0.25 0"/>
<feBlend mode="normal" in2="BackgroundImageFix" result="effect1_dropShadow"/>
<feBlend mode="normal" in="SourceGraphic" in2="effect1_dropShadow" result="shape"/>
</filter>
</defs>
</svg>
